<svg xmlns="http://www.w3.org/2000/svg" xmlns:xlink="http://www.w3.org/1999/xlink" viewBox="0 0 250 145.35"><defs><style>.cls-1{fill:#3d69b2;}.cls-2{fill:url(#linear-gradient);}.cls-3{fill:url(#linear-gradient-2);}.cls-4{fill:#3c4fa2;}</style><linearGradient id="linear-gradient" x1="113.47" y1="40.3" x2="199.71" y2="126.55" gradientUnits="userSpaceOnUse"><stop offset="0.55" stop-color="#3d69b2"/><stop offset="0.8" stop-color="#3c4fa2"/></linearGradient><linearGradient id="linear-gradient-2" x1="48.59" y1="101.71" x2="119.72" y2="30.58" gradientUnits="userSpaceOnUse"><stop offset="0.26" stop-color="#258dc7"/><stop offset="0.72" stop-color="#3d69b2"/></linearGradient></defs><g id="Layer_2" data-name="Layer 2"><g id="vertical"><path class="cls-1" d="M115.39,26.66,99.82,42.23c-.11.11-.24.17-.27.13L83.37,26.19l16-16,16.17,16.17S115.51,26.54,115.39,26.66Z"/><path class="cls-2" d="M207.46,118.31,180.37,91.22h0L121.72,32.57a.35.35,0,0,0-.47,0L105.68,48.09a.33.33,0,0,0,.06.46l46.59,46.6,29.54,29.54c5.44,5.44,13.63,6.07,18.29,1.41l7.34-7.33A.33.33,0,0,0,207.46,118.31Z"/><path class="cls-3" d="M136.34,79.16,97.17,118.33,16,37.15l-16,16,81.19,81.19,7.54,7.54a11.94,11.94,0,0,0,16.88,0l7.54-7.54,39.18-39.17,16-16-16-16Z"/><path class="cls-4" d="M250,63.62a4.24,4.24,0,0,0-1.19-3l0,0-7.54-7.54L188.2,0l-16,16L225.27,69l-49.53,49.53,7.26,7.26a12.32,12.32,0,0,0,17.44,0l40.77-40.77,7.58-7.58h0a4.23,4.23,0,0,0,1.19-3C250,70.85,250,67.23,250,63.62Z"/></g></g></svg>